<?xml version="1.0" encoding="UTF-8"?>
<svg width="24px" height="24px" viewBox="0 0 24 24" version="1.1" xmlns="http://www.w3.org/2000/svg" xmlns:xlink="http://www.w3.org/1999/xlink">
    <!-- Generator: Sketch 41 (35326) - http://www.bohemiancoding.com/sketch -->
    <title>ic_provisioning</title>
    <desc>Created with Sketch.</desc>
    <defs></defs>
    <g id="Page-1" stroke="none" stroke-width="1" fill="none" fill-rule="evenodd">
        <g id="PROVISIONED-Copy-2" transform="translate(-1030.000000, -412.000000)" fill="#9B9B9B">
            <g id="Group-6" transform="translate(1019.000000, 405.000000)">
                <g id="ic_provisioning-copy-2" transform="translate(11.000000, 7.000000)">
                    <g id="Group-4" transform="translate(1.000000, 2.000000)">
                        <path d="M16.4119598,16.9426383 C14.6926102,18.4207514 12.434117,19.3176383 9.96055786,19.3176383 C4.57394023,19.3176383 0.2072246,15.0643437 0.2072246,9.81763831 C0.2072246,4.57093289 4.57394023,0.317638306 9.96055786,0.317638306 C15.3471755,0.317638306 19.7138911,4.57093289 19.7138911,9.81763831 L18.4947242,9.81763831 C18.4947242,5.22677109 14.6738486,1.50513828 9.96055786,1.50513828 C5.24726717,1.50513828 1.42639152,5.22677109 1.42639152,9.81763831 C1.42639152,14.4085055 5.24726717,18.1301383 9.96055786,18.1301383 C11.5694537,18.1301383 13.0743631,17.6964869 14.3588071,16.9426383 L16.4119598,16.9426383 L16.4119598,16.9426383 Z" id="unlock_L" stroke="#9B9B9B" stroke-width="0.75"></path>
                        <polygon id="unlock_L-path" stroke="#9B9B9B" stroke-width="0.75" points="19.0141722 12.0174544 21.2072246 8.31763831 16.8211206 8.31763831"></polygon>
                        <path d="M13.7564998,9.49304431 C13.627645,9.36418948 13.4712838,9.29987083 13.2871743,9.29987083 L8.20820096,9.29987083 L8.20820096,7.09162153 C8.20820096,6.60387785 8.38075669,6.18758322 8.72581982,5.8425201 C9.07090711,5.49752948 9.48722591,5.32499792 9.97492125,5.32499792 C10.4625682,5.32499792 10.8789596,5.49750531 11.2239018,5.8425201 C11.5689891,6.18758322 11.7415449,6.60390202 11.7415449,7.09162153 C11.7415449,7.21119475 11.7852216,7.31469435 11.8725509,7.40209616 C11.9600736,7.48952215 12.0636215,7.53324722 12.1830739,7.53324722 L12.6249413,7.53324722 C12.7444661,7.53324722 12.8479657,7.48952215 12.9354884,7.40209616 C13.0226485,7.31469435 13.0664944,7.21119475 13.0664944,7.09162153 C13.0664944,6.24042071 12.7639962,5.51251541 12.1590964,4.90749475 C11.5540999,4.30244991 10.8260012,4 9.97492125,4 C9.12376877,4 8.39574262,4.30244991 7.79069778,4.90747057 C7.18574963,5.51241873 6.88327555,6.24039654 6.88327555,7.09159736 L6.88327555,9.29984666 L6.66247479,9.29984666 C6.47851041,9.29984666 6.32205247,9.36431033 6.19322181,9.49302013 C6.06439116,9.62172994 6,9.77823622 6,9.96227311 L6,13.9372185 C6,14.1213279 6.06441533,14.2777617 6.19322181,14.406544 C6.32205247,14.5352538 6.47851041,14.5996933 6.66247479,14.5996933 L13.2871743,14.5996933 C13.4712838,14.5996933 13.62779,14.5352538 13.7564998,14.406544 C13.8852096,14.2777617 13.9497217,14.1213279 13.9497217,13.9372185 L13.9497217,9.96229728 C13.9498183,9.77826039 13.8853788,9.6219233 13.7564998,9.49304431 Z" id="Shape"></path>
                    </g>
                </g>
            </g>
        </g>
    </g>
</svg>
